<svg xmlns="http://www.w3.org/2000/svg" aria-hidden="true" style="position:absolute;width:0;height:0;overflow:hidden">
  <defs>
  <!-- instagram -->
    <symbol id="icon-instagram" viewBox="0 0 32 32">
      <path d="M31.969 9.408c-.075-1.7-.35-2.869-.744-3.882a7.803 7.803 0 0 0-1.85-2.838A7.867 7.867 0 0 0 26.543.844C25.524.45 24.361.175 22.661.1 20.948.019 20.404 0 16.06 0s-4.888.019-6.595.094c-1.7.075-2.869.35-3.882.744a7.803 7.803 0 0 0-2.838 1.85A7.867 7.867 0 0 0 .901 5.52C.507 6.539.232 7.702.157 9.402c-.081 1.713-.1 2.257-.1 6.601s.019 4.888.094 6.595c.075 1.7.35 2.869.744 3.882a7.895 7.895 0 0 0 1.85 2.838 7.867 7.867 0 0 0 2.832 1.844c1.019.394 2.182.669 3.882.744 1.706.075 2.25.094 6.595.094s4.888-.018 6.595-.094c1.7-.075 2.869-.35 3.882-.744a8.181 8.181 0 0 0 4.682-4.682c.394-1.019.669-2.182.744-3.882.075-1.707.094-2.251.094-6.595s-.006-4.888-.081-6.595zm-2.882 13.065c-.069 1.563-.331 2.407-.55 2.969a5.307 5.307 0 0 1-3.038 3.038c-.563.219-1.413.481-2.969.55-1.688.075-2.194.094-6.464.094s-4.782-.018-6.464-.094c-1.563-.069-2.407-.331-2.969-.55a4.926 4.926 0 0 1-1.838-1.194 4.974 4.974 0 0 1-1.194-1.838c-.219-.563-.481-1.413-.55-2.969-.075-1.688-.094-2.194-.094-6.464s.019-4.782.094-6.464c.069-1.563.331-2.407.55-2.969a4.868 4.868 0 0 1 1.2-1.838A4.974 4.974 0 0 1 6.639 3.55c.563-.219 1.413-.481 2.969-.55 1.688-.075 2.194-.094 6.464-.094 4.276 0 4.782.019 6.464.094 1.563.069 2.407.331 2.969.55a4.914 4.914 0 0 1 1.838 1.194 4.974 4.974 0 0 1 1.194 1.838c.219.563.481 1.413.55 2.969.075 1.688.094 2.194.094 6.464s-.019 4.77-.094 6.457z"/>
      <path d="M16.059 7.782c-4.538 0-8.22 3.682-8.22 8.22s3.682 8.22 8.22 8.22c4.539 0 8.22-3.682 8.22-8.22s-3.682-8.22-8.22-8.22zm0 13.553a5.333 5.333 0 0 1 0-10.664 5.333 5.333 0 0 1 0 10.664zM26.524 7.457a1.919 1.919 0 1 1-3.838 0 1.919 1.919 0 0 1 3.838 0z"/>
    </symbol>
    <!-- facebook -->
    <symbol id="icon-facebook" viewBox="0 0 32 32">
      <path d="M21.329 5.313h2.921V.225C23.746.156 22.013 0 19.994 0c-4.212 0-7.097 2.649-7.097 7.519V12H8.249v5.688h4.648V32h5.699V17.689h4.46l.708-5.688h-5.169V8.082c.001-1.644.444-2.769 2.735-2.769z"/>
    </symbol>
    <!-- twitter -->
    <symbol id="icon-twitter" viewBox="0 0 36 32">
      <path d="M31.839 8.868c0.022 0.329 0.022 0.658 0.022 0.987 0.019 2.842-0.48 5.661-1.466 8.291s-2.441 5.020-4.279 7.029c-1.838 2.010-4.023 3.6-6.429 4.679s-4.982 1.623-7.582 1.603c-3.78 0.011-7.483-1.172-10.662-3.408 0.557 0.067 1.117 0.099 1.677 0.094 3.125 0.009 6.162-1.134 8.621-3.244-1.449-0.029-2.854-0.553-4.018-1.498s-2.029-2.264-2.473-3.773c0.434 0.075 0.872 0.115 1.312 0.118 0.617-0.002 1.231-0.088 1.829-0.258-1.572-0.348-2.986-1.28-4.001-2.639s-1.568-3.060-1.566-4.814v-0.089c0.962 0.587 2.038 0.917 3.139 0.963-1.474-1.075-2.517-2.724-2.916-4.611s-0.125-3.869 0.767-5.543c1.744 2.347 3.92 4.267 6.386 5.636s5.168 2.155 7.93 2.309c-0.109-0.572-0.165-1.155-0.166-1.74 0.003-1.521 0.424-3.005 1.207-4.261s1.893-2.227 3.186-2.787c1.293-0.559 2.71-0.682 4.067-0.352s2.593 1.098 3.547 2.205c1.555-0.328 3.046-0.948 4.407-1.834-0.518 1.753-1.603 3.24-3.052 4.181 1.379-0.172 2.726-0.568 3.998-1.176-0.951 1.514-2.128 2.841-3.483 3.926v0.005z"></path>
    </symbol>
  </defs>
</svg>
